# xmcd
#
# Track frame offsets: 
#        150
#        14400
#        33450
#        54000
#        70050
#        102525
#        121275
#        136275
#        152025
#        173475
#        190125
#        202425
#        212475
#        224250
#        234450
#        249300
#        260250
#        275662
#        287774
#        298424
#
# Disc length: 4133 seconds
#
# Revision: 0
# Processed by: cddbd v1.5.2PL0 Copyright (c) Steve Scherf et al.
# Submitted via: ExactAudioCopy v1.2
#
DISCID=32102314
DTITLE=Don Covay and Jackie Edwards - Don Covay With Special Guest Jacki
DTITLE=e Edwards
DYEAR=2019
DGENRE=Blues
TTITLE0=Don Covay - Ain’t Nothing A Young Girl Can Do For Me
TTITLE1=Don Covay - Bad Luck
TTITLE2=Don Covay - Daddy Please Don’t Go Out Tonight
TTITLE3=Don Covay - If There’s A Will, There’s A Way
TTITLE4=Don Covay - In The Sweet Bye And Bye
TTITLE5=Don Covay - Standing In The Grits Line
TTITLE6=Don Covay - Stop By
TTITLE7=Don Covay - Sweet Thang
TTITLE8=Don Covay - What’s In The Headlines
TTITLE9=Don Covay - Why Do You Put Your Shoes Under My Bed
TTITLE10=Jackie Edwards - Just Hangin On
TTITLE11=Jackie Edwards - Knock Three Times
TTITLE12=Jackie Edwards - It’s Time
TTITLE13=Jackie Edwards - I’m Weak
TTITLE14=Jackie Edwards - That’s The Way I Am
TTITLE15=Jackie Edwards - Big Blue Diamond
TTITLE16=Jackie Edwards - You Gave Me A Mountain
TTITLE17=Jackie Edwards - An Engel To Look At
TTITLE18=Jackie Edwards - It Gonna Take A Little Longer
TTITLE19=Jackie Edwards - Someone Is Taking Her Place
EXTD=
EXTT0=
EXTT1=
EXTT2=
EXTT3=
EXTT4=
EXTT5=
EXTT6=
EXTT7=
EXTT8=
EXTT9=
EXTT10=
EXTT11=
EXTT12=
EXTT13=
EXTT14=
EXTT15=
EXTT16=
EXTT17=
EXTT18=
EXTT19=
PLAYORDER=
